# xmcd
#
# Track frame offsets: 
#        150
#        11644
#        34506
#        53481
#        67682
#        90620
#        116122
#        127794
#        144355
#        171753
#
# Disc length: 2623 seconds
#
# Revision: 0
# Processed by: cddbd v1.5.2PL0 Copyright (c) Steve Scherf et al.
# Submitted via: ExactAudioCopy v0.99pb3
#
DISCID=720a3d0a
DTITLE=Austin Walkin' Cane - Murder Of A Blues Singer
DYEAR=2008
DGENRE=Blues
TTITLE0=High Rent Lemon Girl, Aren't Ya
TTITLE1=Murder Of A Blues Singer
TTITLE2=Devil's Backbone
TTITLE3=Step It Up And Go
TTITLE4=Ramblin' On My Mind
TTITLE5=Georgia Moon
TTITLE6=Graveyard Town
TTITLE7=Hold On The Night
TTITLE8=Late Great Singer
TTITLE9=See That My Grave Is Kept Clean
EXTD=
EXTT0=
EXTT1=
EXTT2=
EXTT3=
EXTT4=
EXTT5=
EXTT6=
EXTT7=
EXTT8=
EXTT9=
PLAYORDER=
